<svg width="24" height="24" viewBox="0 0 24 24" fill="none" xmlns="http://www.w3.org/2000/svg">
<g clip-path="url(#clip0_351_2794)">
<path d="M11.0762 21.2311C15.6645 21.2311 19.3839 17.5116 19.3839 12.9234C19.3839 8.3352 15.6645 4.61572 11.0762 4.61572C6.48804 4.61572 2.76855 8.3352 2.76855 12.9234C2.76855 17.5116 6.48804 21.2311 11.0762 21.2311Z" fill="#FFFFFF"/>
<circle cx="10.6151" cy="8.76938" r="1.38462" fill="#1B1D26"/>
<circle cx="14.7688" cy="14.7693" r="0.923077" fill="#1B1D26"/>
<path d="M19.7214 16.6922L19.2756 16.9186L19.5019 17.3644L19.9198 18.1875C20.388 19.1097 20.6325 19.8342 20.7062 20.3397C20.7336 20.5274 20.7336 20.6492 20.727 20.7232C20.6351 20.7311 20.468 20.7287 20.1914 20.6734C19.5684 20.5487 18.6987 20.2057 17.6247 19.6053C15.4947 18.4145 12.8467 16.3733 10.2365 13.7631C7.62629 11.1529 5.58515 8.50496 4.39437 6.37492C3.79398 5.30096 3.45096 4.43125 3.32627 3.80826C3.27085 3.53135 3.26857 3.36424 3.27645 3.27235C3.35053 3.26573 3.47276 3.26561 3.66145 3.29321C4.16775 3.36725 4.89314 3.61237 5.81631 4.08147L6.63923 4.49964L7.08498 4.72615L7.31149 4.2804L8.14783 2.63455L8.37434 2.1888L7.92859 1.96229L7.10566 1.54412C6.04689 1.00611 5.00924 0.61388 4.07329 0.477007C3.17392 0.345483 2.04867 0.411654 1.2298 1.23053C0.328679 2.13165 0.341833 3.39936 0.535468 4.36682C0.742382 5.40064 1.2398 6.56479 1.91007 7.76375C3.26052 10.1794 5.48122 13.033 8.22395 15.7757C10.9667 18.5184 13.8202 20.7391 16.2359 22.0896C17.4348 22.7598 18.599 23.2572 19.6328 23.4642C20.6003 23.6578 21.868 23.6709 22.7691 22.7698C23.5873 21.9516 23.6537 20.8273 23.5226 19.9287C23.3861 18.9936 22.9947 17.9569 22.4576 16.899L22.0397 16.076L21.8134 15.6301L21.3675 15.8565L19.7214 16.6922ZM20.7088 20.82C20.7088 20.8199 20.709 20.8193 20.7096 20.818C20.7091 20.8193 20.7088 20.82 20.7088 20.82ZM3.18001 3.29062C3.17999 3.29059 3.18065 3.29028 3.18204 3.28974C3.18072 3.29037 3.18003 3.29064 3.18001 3.29062Z" fill="#FFF" stroke="#1B1D26" stroke-miterlimit="10" stroke-linecap="square"/>
</g>
<defs>
<clipPath id="clip0_351_2794">
<rect width="24" height="24" fill="white"/>
</clipPath>
</defs>
</svg>
